<svg xmlns="http://www.w3.org/2000/svg" viewBox="0 0 32 32"><g stroke="purple" transform="translate(-1.915 1.317)scale(.94628)"><path d="m29.106 20.255-7.727 8.713m7.727-26.074L21.38 10.62m-9.635-7.726L3.032 10.62" style="fill:purple;fill-opacity:1;stroke:purple;stroke-width:1;stroke-dasharray:none;stroke-opacity:1" transform="translate(2.024 -1.392)scale(1.05677)"/><circle cx="5.228" cy="29.22" r="2.77" fill="#fff" style="stroke-width:.923256"/><circle cx="5.228" cy="9.832" r="2.77" fill="#fff" style="stroke-width:.923256"/><circle cx="24.617" cy="9.832" r="2.77" fill="#fff" style="stroke-width:.923256"/><circle cx="24.617" cy="29.22" r="2.77" fill="#fff" style="stroke-width:.923256"/><path d="M5.228 26.45V12.602m2.77-2.77h13.849m2.77 2.77V26.45m-2.77 2.77H7.998" style="fill:none;stroke-width:.923256"/><circle cx="14.436" cy="1.666" r="2.621" fill="#fff" style="stroke-width:.873662"/><circle cx="32.783" cy="1.666" r="2.621" fill="#fff" style="stroke-width:.873662"/><circle cx="32.783" cy="20.013" r="2.621" fill="#fff" style="stroke-width:.873662"/><path d="M17.057 1.666h13.105m2.621 2.621v13.105" style="fill:none;stroke-width:.873662"/></g><text xml:space="preserve" x="8.428" y="24.135" style="font-size:13.3333px;font-family:Calibri;-inkscape-font-specification:&quot;Calibri, Normal&quot;;display:inline;fill:purple;fill-opacity:1;stroke:none;stroke-width:0;stroke-dasharray:none;stroke-opacity:1"><tspan x="8.428" y="24.135" style="stroke-width:0">V</tspan></text></svg>